<svg xmlns="http://www.w3.org/2000/svg" xmlns:xlink="http://www.w3.org/1999/xlink" width="142.825" height="27.65" viewBox="0 0 142.825 27.65"><defs><style>.a{fill:#fff;}.b{clip-path:url(#a);}.c{clip-path:url(#b);}.d{clip-path:url(#c);}.e{clip-path:url(#d);}.f{clip-path:url(#e);}.g{clip-path:url(#g);}.h{clip-path:url(#h);}.i{clip-path:url(#i);}.j{clip-path:url(#k);}.k{clip-path:url(#m);}.l{clip-path:url(#o);}.m{clip-path:url(#q);}.n{clip-path:url(#s);}.o{clip-path:url(#u);}.p{clip-path:url(#w);}.q{clip-path:url(#y);}.r{clip-path:url(#aa);}.s{clip-path:url(#ac);}.t{clip-path:url(#ae);}</style><clipPath id="a"><path class="a" d="M12.576,20.217a7.636,7.636,0,0,1-4.937,1.67c-4.208,0-7.2-2.39-7.2-7.125A7.125,7.125,0,0,1,7.823,7.62,6.592,6.592,0,0,1,12.4,9.373a1.3,1.3,0,0,1-1.744,1.91,4.22,4.22,0,0,0-2.824-1.255,4.761,4.761,0,0,0-4.771,4.734,4.421,4.421,0,0,0,4.6,4.734,5.128,5.128,0,0,0,3.009-.9V16.157H7.638a1.215,1.215,0,1,1,0-2.427h4.015A1.368,1.368,0,0,1,13.074,14.9v4.236a1.584,1.584,0,0,1-.5,1.08" transform="translate(-0.44 -7.62)"/></clipPath><clipPath id="b"><rect class="a" width="1328.95" height="74.753"/></clipPath><clipPath id="c"><path class="a" d="M17.29,9.209A1.244,1.244,0,0,1,18.554,8a1.208,1.208,0,0,1,1.181,1.209v9.967H25.19a1.317,1.317,0,1,1,0,2.612H18.554a1.209,1.209,0,0,1-1.264-1.209Z" transform="translate(-17.29 -8)"/></clipPath><clipPath id="d"><rect class="a" width="1328.95" height="74.753" transform="translate(0 0)"/></clipPath><clipPath id="e"><path class="a" d="M36.208,21.942A6.977,6.977,0,0,1,28.65,14.78c0-4.891,3.848-7.3,7.558-7.3,3.507.175,7.18,2.584,7.18,7.3a6.969,6.969,0,0,1-7.18,7.162m-.221-11.877a4.577,4.577,0,0,0-4.7,4.716,4.734,4.734,0,0,0,9.469,0,4.6,4.6,0,0,0-4.771-4.716" transform="translate(-28.65 -7.48)"/></clipPath><clipPath id="g"><path class="a" d="M47,10.948c.461-3.858,6.34-4.559,9.109-2.446a1.167,1.167,0,1,1-1.283,1.947c-1.486-.932-4.854-1.375-5.279.692C49,14.408,57.734,12.535,57.6,17.823c-.138,5.057-7.521,5.168-10.29,2.907a1.449,1.449,0,0,1-.277-1.947,1.181,1.181,0,0,1,1.781-.138c1.643,1.117,5.879,1.947,6.174-.877-.258-2.944-8.6-1.172-7.983-6.82" transform="translate(-46.773 -7.329)"/></clipPath><clipPath id="h"><rect class="a" width="1328.95" height="74.753" transform="translate(0)"/></clipPath><clipPath id="i"><path class="a" d="M60.721,10.948c.461-3.858,6.34-4.559,9.109-2.446a1.167,1.167,0,1,1-1.283,1.947c-1.486-.932-4.854-1.375-5.279.692-.544,3.267,8.186,1.394,8.048,6.682-.138,5.057-7.521,5.168-10.29,2.907a1.449,1.449,0,0,1-.277-1.947,1.181,1.181,0,0,1,1.781-.138c1.643,1.117,5.879,1.947,6.174-.877-.258-2.944-8.6-1.172-7.983-6.82" transform="translate(-60.493 -7.329)"/></clipPath><clipPath id="k"><path class="a" d="M74.353,21.77a1.4,1.4,0,0,1-.646-1.91L79.466,8.693a1.366,1.366,0,0,1,2.492,0l5.657,11.167c.821,1.55-1.606,2.787-2.326,1.237L84.4,19.343H77L76.143,21.1A1.519,1.519,0,0,1,74.353,21.77Zm8.629-5.048L80.711,11.8l-2.464,4.919Z" transform="translate(-73.548 -7.886)"/></clipPath><clipPath id="m"><path class="a" d="M93.447,20.488a1.334,1.334,0,0,1-2.667.037V9.229a1.194,1.194,0,0,1,1.2-1.209h5.334c5.094,0,6.137,6.765,1.883,8.454l2.667,3.221a1.349,1.349,0,1,1-2.243,1.5l-3.027-4.3H93.447Zm0-5.888h3.876c2.612,0,2.769-4.181,0-4.181H93.447Z" transform="translate(-90.78 -8.02)"/></clipPath><clipPath id="o"><path class="a" d="M106.515,10.73a1.316,1.316,0,0,1,0-2.63h7.392a1.316,1.316,0,0,1,0,2.63h-7.392Z" transform="translate(-105.259 -8.1)"/></clipPath><clipPath id="q"><path class="a" d="M118.483,21.77a1.4,1.4,0,0,1-.646-1.91L123.6,8.693a1.366,1.366,0,0,1,2.492,0l5.657,11.167c.821,1.55-1.606,2.787-2.326,1.237l-.886-1.753h-7.4l-.858,1.753A1.528,1.528,0,0,1,118.483,21.77Zm8.62-5.048-2.27-4.919-2.464,4.919Z" transform="translate(-117.678 -7.886)"/></clipPath><clipPath id="s"><path class="a" d="M136.284,21.779a1.252,1.252,0,0,1-1.384-1.237V9.247a1.356,1.356,0,0,1,1.384-1.237h4.6c9.164,0,8.97,13.769.185,13.769Zm1.264-11.333v8.915h3.332c5.417,0,5.657-8.915,0-8.915Z" transform="translate(-134.9 -8.01)"/></clipPath><clipPath id="u"><path class="a" d="M106.515,22.71a1.316,1.316,0,0,1,0-2.63h7.392a1.316,1.316,0,0,1,0,2.63Z" transform="translate(-105.259 -20.08)"/></clipPath><clipPath id="w"><path class="a" d="M106.515,16.72a1.316,1.316,0,0,1,0-2.63h7.392a1.316,1.316,0,0,1,0,2.63Z" transform="translate(-105.259 -14.09)"/></clipPath><clipPath id="y"><path class="a" d="M120.234,22.9a2.771,2.771,0,0,1-1.264,1.274v3.165H100.291V24.326a3.243,3.243,0,0,1-1.44-1.052l-1.061-1.5v6.811a1.255,1.255,0,0,0,1.255,1.246h21.189a1.249,1.249,0,0,0,1.255-1.246V22.075h-.84Z" transform="translate(-97.79 -21.77)"/></clipPath><clipPath id="aa"><path class="a" d="M120.225.54H99.045A1.249,1.249,0,0,0,97.79,1.786v4h.074a6.477,6.477,0,0,1,2.436.452V3.023h18.679v7.457l1.6-3.1a3.059,3.059,0,0,1,.914-1.052V1.786A1.262,1.262,0,0,0,120.225.54" transform="translate(-97.79 -0.54)"/></clipPath><clipPath id="ac"><path class="a" d="M150.4,8.52h-.664a.24.24,0,1,1,0-.48h1.79a.24.24,0,1,1,0,.48H150.9v1.9a.249.249,0,0,1-.5,0Z" transform="translate(-149.49 -8.04)"/></clipPath><clipPath id="ae"><path class="a" d="M152.878,9v1.394a.262.262,0,0,1-.277.258.236.236,0,0,1-.231-.258V8.278a.251.251,0,0,1,.231-.258.31.31,0,0,1,.24.138l.84,1.117.868-1.163a.247.247,0,0,1,.434.166V10.4a.236.236,0,0,1-.231.258.233.233,0,0,1-.24-.258V9l-.637.794a.251.251,0,0,1-.434,0Z" transform="translate(-152.37 -8.02)"/></clipPath></defs><g transform="translate(-0.44 -0.54)"><g transform="translate(0.44 7.074)"><g class="b"><g class="c" transform="translate(-27.686 -29.643)"><rect class="a" width="21.863" height="23.497" transform="translate(23.072 25.038)"/></g></g></g><g transform="translate(15.991 7.425)"><g class="d"><g class="e" transform="translate(-43.237 -29.994)"><rect class="a" width="18.624" height="23.017" transform="translate(38.623 25.37)"/></g></g></g><g transform="translate(26.475 6.945)"><g class="f"><g class="c" transform="translate(-53.721 -29.514)"><rect class="a" width="23.976" height="23.7" transform="translate(49.097 24.899)"/></g></g></g><g transform="translate(43.2 6.806)"><g class="g"><g class="h" transform="translate(-70.447 -29.375)"><rect class="a" width="20.054" height="24.05" transform="translate(65.829 24.761)"/></g></g></g><g transform="translate(55.862 6.806)"><g class="i"><g class="c" transform="translate(-83.109 -29.375)"><rect class="a" width="20.054" height="24.05" transform="translate(78.491 24.761)"/></g></g></g><g transform="translate(67.91 7.32)"><g class="j"><g class="c" transform="translate(-95.157 -29.889)"><rect class="a" width="23.46" height="23.155" transform="translate(90.544 25.287)"/></g></g></g><g transform="translate(83.813 7.443)"><g class="k"><g class="h" transform="translate(-111.06 -30.012)"><rect class="a" width="20.608" height="23.035" transform="translate(106.445 25.388)"/></g></g></g><g transform="translate(97.175 7.517)"><g class="l"><g class="c" transform="translate(-124.422 -30.086)"><rect class="a" width="19.141" height="11.859" transform="translate(119.799 25.472)"/></g></g></g><g transform="translate(108.637 7.32)"><g class="m"><g class="h" transform="translate(-135.883 -29.889)"><rect class="a" width="23.46" height="23.155" transform="translate(131.271 25.287)"/></g></g></g><g transform="translate(124.531 7.434)"><g class="n"><g class="c" transform="translate(-151.777 -30.003)"><rect class="a" width="22.029" height="22.998" transform="translate(147.163 25.398)"/></g></g></g><g transform="translate(97.175 18.573)"><g class="o"><g class="c" transform="translate(-124.422 -41.142)"><rect class="a" width="19.141" height="11.859" transform="translate(119.799 36.537)"/></g></g></g><g transform="translate(97.175 13.045)"><g class="p"><g class="e" transform="translate(-124.422 -35.614)"><rect class="a" width="19.141" height="11.859" transform="translate(119.799 31.009)"/></g></g></g><g transform="translate(90.283 20.133)"><g class="q"><g class="h" transform="translate(-117.529 -42.702)"><rect class="a" width="32.919" height="17.286" transform="translate(112.915 38.087)"/></g></g></g><g transform="translate(90.283 0.54)"><g class="r"><g class="h" transform="translate(-117.529 -23.109)"><rect class="a" width="32.919" height="19.168" transform="translate(112.915 18.495)"/></g></g></g><g transform="translate(137.996 7.462)"><path class="a" d="M150.4,8.52h-.664a.24.24,0,1,1,0-.48h1.79a.24.24,0,1,1,0,.48H150.9v1.9a.249.249,0,0,1-.5,0Z" transform="translate(-149.49 -8.04)"/><g class="s"><rect class="a" width="1328.95" height="74.753" transform="translate(-165.242 -30.031)"/><g class="e" transform="translate(-165.242 -30.031)"><rect class="a" width="11.527" height="11.859" transform="translate(160.628 25.416)"/></g></g></g><g transform="translate(140.653 7.443)"><path class="a" d="M152.878,9v1.394a.262.262,0,0,1-.277.258.236.236,0,0,1-.231-.258V8.278a.251.251,0,0,1,.231-.258.31.31,0,0,1,.24.138l.84,1.117.868-1.163a.247.247,0,0,1,.434.166V10.4a.236.236,0,0,1-.231.258.233.233,0,0,1-.24-.258V9l-.637.794a.251.251,0,0,1-.434,0Z" transform="translate(-152.37 -8.02)"/><g class="t"><rect class="a" width="1328.95" height="74.753" transform="translate(-167.9 -30.012)"/><g class="c" transform="translate(-167.9 -30.012)"><rect class="a" width="11.831" height="11.868" transform="translate(163.295 25.398)"/></g></g></g></g></svg>